<svg width="467" height="90" viewBox="0 0 467 90" fill="none" xmlns="http://www.w3.org/2000/svg">
<path d="M124.881 60.3693C122.852 60.3693 121.059 60.0909 119.501 59.5341C117.944 58.9839 116.634 58.1719 115.574 57.098C114.513 56.0241 113.711 54.7083 113.168 53.1506C112.624 51.5928 112.352 49.8097 112.352 47.8011C112.352 45.8589 112.627 44.1222 113.178 42.5909C113.734 41.0597 114.54 39.7604 115.594 38.6932C116.654 37.6193 117.94 36.8007 119.452 36.2372C120.97 35.6738 122.687 35.392 124.602 35.392C126.465 35.392 128.096 35.697 129.494 36.3068C130.9 36.91 132.073 37.7287 133.014 38.7628C133.962 39.7902 134.671 40.947 135.142 42.233C135.619 43.5189 135.858 44.8447 135.858 46.2102C135.858 47.1714 135.812 48.1458 135.719 49.1335C135.626 50.1212 135.43 51.0294 135.132 51.858C134.834 52.6799 134.373 53.3428 133.75 53.8466C133.134 54.3504 132.298 54.6023 131.244 54.6023C130.78 54.6023 130.27 54.5294 129.713 54.3835C129.156 54.2377 128.662 53.9957 128.232 53.6577C127.801 53.3196 127.545 52.8655 127.466 52.2955H127.347C127.188 52.6799 126.942 53.0445 126.611 53.3892C126.286 53.7339 125.858 54.009 125.328 54.2145C124.804 54.42 124.165 54.5095 123.409 54.483C122.547 54.4498 121.788 54.2576 121.132 53.9062C120.476 53.5483 119.926 53.0644 119.482 52.4545C119.044 51.8381 118.713 51.1255 118.487 50.3168C118.268 49.5014 118.159 48.6231 118.159 47.6818C118.159 46.7869 118.292 45.9683 118.557 45.2259C118.822 44.4834 119.19 43.8338 119.661 43.277C120.138 42.7202 120.695 42.276 121.331 41.9446C121.974 41.6065 122.667 41.3977 123.409 41.3182C124.072 41.2519 124.675 41.2817 125.219 41.4077C125.762 41.527 126.21 41.7093 126.561 41.9545C126.912 42.1932 127.134 42.4583 127.227 42.75H127.347V41.6364H129.455V50.625C129.455 51.1818 129.61 51.6723 129.922 52.0966C130.233 52.5208 130.688 52.733 131.284 52.733C131.96 52.733 132.477 52.5009 132.835 52.0369C133.2 51.5729 133.448 50.857 133.581 49.8892C133.72 48.9214 133.79 47.6818 133.79 46.1705C133.79 45.2822 133.667 44.4072 133.422 43.5455C133.183 42.6771 132.819 41.8651 132.328 41.1094C131.844 40.3537 131.231 39.6875 130.489 39.1108C129.746 38.5341 128.875 38.0833 127.874 37.7585C126.879 37.4271 125.749 37.2614 124.483 37.2614C122.925 37.2614 121.53 37.5033 120.297 37.9872C119.071 38.4645 118.027 39.1638 117.165 40.0852C116.31 41 115.657 42.1136 115.206 43.4261C114.762 44.732 114.54 46.2169 114.54 47.8807C114.54 49.571 114.762 51.0724 115.206 52.3849C115.657 53.6974 116.32 54.8045 117.195 55.706C118.076 56.6075 119.167 57.2902 120.466 57.7543C121.765 58.2249 123.263 58.4602 124.96 58.4602C125.689 58.4602 126.409 58.3906 127.118 58.2514C127.827 58.1122 128.454 57.9598 128.997 57.794C129.541 57.6283 129.932 57.5057 130.17 57.4261L130.727 59.2557C130.316 59.428 129.779 59.6004 129.116 59.7727C128.46 59.9451 127.758 60.0876 127.009 60.2003C126.266 60.313 125.557 60.3693 124.881 60.3693ZM123.727 52.4545C124.616 52.4545 125.335 52.2756 125.885 51.9176C126.435 51.5597 126.836 51.0194 127.088 50.2969C127.34 49.5743 127.466 48.6629 127.466 47.5625C127.466 46.4489 127.327 45.5805 127.048 44.9574C126.77 44.3343 126.359 43.8968 125.815 43.6449C125.272 43.393 124.602 43.267 123.807 43.267C123.051 43.267 122.405 43.4659 121.868 43.8636C121.338 44.2547 120.93 44.7784 120.645 45.4347C120.366 46.0843 120.227 46.7936 120.227 47.5625C120.227 48.411 120.34 49.2098 120.565 49.9588C120.791 50.7012 121.159 51.3045 121.669 51.7685C122.179 52.2259 122.866 52.4545 123.727 52.4545ZM139.689 55V34.6364H142.035V42.1534H142.234C142.406 41.8883 142.645 41.5502 142.95 41.1392C143.261 40.7216 143.706 40.3504 144.282 40.0256C144.866 39.6941 145.654 39.5284 146.649 39.5284C147.935 39.5284 149.068 39.8499 150.049 40.4929C151.03 41.1359 151.796 42.0473 152.346 43.2273C152.896 44.4072 153.172 45.7992 153.172 47.4034C153.172 49.0208 152.896 50.4228 152.346 51.6094C151.796 52.7893 151.034 53.7041 150.059 54.3537C149.085 54.9967 147.961 55.3182 146.689 55.3182C145.708 55.3182 144.922 55.1558 144.332 54.831C143.742 54.4995 143.288 54.125 142.97 53.7074C142.652 53.2831 142.406 52.9318 142.234 52.6534H141.956V55H139.689ZM141.995 47.3636C141.995 48.517 142.164 49.5346 142.502 50.4162C142.841 51.2912 143.334 51.9773 143.984 52.4744C144.634 52.965 145.429 53.2102 146.37 53.2102C147.351 53.2102 148.17 52.9517 148.826 52.4347C149.489 51.911 149.986 51.2083 150.318 50.3267C150.656 49.4384 150.825 48.4508 150.825 47.3636C150.825 46.2898 150.659 45.322 150.328 44.4602C150.003 43.5919 149.509 42.9058 148.846 42.402C148.19 41.8916 147.365 41.6364 146.37 41.6364C145.416 41.6364 144.614 41.8783 143.964 42.3622C143.315 42.8395 142.824 43.509 142.493 44.3707C142.161 45.2259 141.995 46.2235 141.995 47.3636ZM163.164 55.3182C161.693 55.3182 160.423 54.9934 159.356 54.3438C158.296 53.6875 157.477 52.7727 156.9 51.5994C156.33 50.4195 156.045 49.0473 156.045 47.483C156.045 45.9186 156.33 44.5398 156.9 43.3466C157.477 42.1468 158.279 41.2121 159.306 40.5426C160.341 39.8665 161.547 39.5284 162.926 39.5284C163.721 39.5284 164.507 39.661 165.282 39.9261C166.058 40.1913 166.764 40.6222 167.4 41.2188C168.037 41.8087 168.544 42.5909 168.922 43.5653C169.299 44.5398 169.488 45.7396 169.488 47.1648V48.1591H157.716V46.1307H167.102C167.102 45.2689 166.93 44.5 166.585 43.8239C166.247 43.1477 165.763 42.6141 165.133 42.223C164.51 41.8319 163.774 41.6364 162.926 41.6364C161.991 41.6364 161.182 41.8684 160.5 42.3324C159.824 42.7898 159.303 43.3864 158.939 44.1222C158.574 44.858 158.392 45.6468 158.392 46.4886V47.8409C158.392 48.9943 158.591 49.9721 158.988 50.7741C159.393 51.5696 159.953 52.1761 160.669 52.5938C161.385 53.0047 162.217 53.2102 163.164 53.2102C163.781 53.2102 164.338 53.1241 164.835 52.9517C165.339 52.7727 165.773 52.5076 166.137 52.1562C166.502 51.7983 166.784 51.3542 166.983 50.8239L169.25 51.4602C169.011 52.2292 168.61 52.9053 168.047 53.4886C167.483 54.0653 166.787 54.5161 165.958 54.8409C165.13 55.1591 164.199 55.3182 163.164 55.3182ZM175.404 45.8125V55H173.058V39.7273H175.325V42.1136H175.524C175.882 41.3381 176.425 40.715 177.154 40.2443C177.884 39.767 178.825 39.5284 179.978 39.5284C181.012 39.5284 181.917 39.7405 182.693 40.1648C183.468 40.5824 184.072 41.2188 184.502 42.0739C184.933 42.9223 185.149 43.9962 185.149 45.2955V55H182.802V45.4545C182.802 44.2547 182.491 43.3201 181.868 42.6506C181.244 41.9744 180.389 41.6364 179.302 41.6364C178.553 41.6364 177.884 41.7988 177.294 42.1236C176.71 42.4484 176.25 42.9223 175.912 43.5455C175.574 44.1686 175.404 44.9242 175.404 45.8125ZM189.437 39.7273H191.783V56.1136C191.783 57.0549 191.621 57.8703 191.296 58.5597C190.978 59.2491 190.494 59.7827 189.844 60.1605C189.201 60.5384 188.389 60.7273 187.408 60.7273C187.329 60.7273 187.249 60.7273 187.17 60.7273C187.09 60.7273 187.011 60.7273 186.931 60.7273V58.5398C187.011 58.5398 187.084 58.5398 187.15 58.5398C187.216 58.5398 187.289 58.5398 187.369 58.5398C188.085 58.5398 188.608 58.3277 188.94 57.9034C189.271 57.4858 189.437 56.8892 189.437 56.1136V39.7273ZM190.59 37.1818C190.133 37.1818 189.738 37.026 189.407 36.7145C189.082 36.4029 188.92 36.0284 188.92 35.5909C188.92 35.1534 189.082 34.7789 189.407 34.4673C189.738 34.1558 190.133 34 190.59 34C191.048 34 191.439 34.1558 191.763 34.4673C192.095 34.7789 192.261 35.1534 192.261 35.5909C192.261 36.0284 192.095 36.4029 191.763 36.7145C191.439 37.026 191.048 37.1818 190.59 37.1818ZM200.576 55.358C199.608 55.358 198.73 55.1757 197.941 54.8111C197.152 54.4399 196.525 53.9062 196.061 53.2102C195.597 52.5076 195.365 51.6591 195.365 50.6648C195.365 49.7898 195.538 49.0805 195.882 48.5369C196.227 47.9867 196.688 47.5559 197.265 47.2443C197.841 46.9328 198.478 46.7008 199.174 46.5483C199.876 46.3892 200.582 46.2633 201.292 46.1705C202.22 46.0511 202.972 45.9616 203.549 45.902C204.132 45.8357 204.556 45.7263 204.821 45.5739C205.093 45.4214 205.229 45.1562 205.229 44.7784V44.6989C205.229 43.7178 204.961 42.9555 204.424 42.4119C203.893 41.8684 203.088 41.5966 202.007 41.5966C200.887 41.5966 200.009 41.8419 199.373 42.3324C198.736 42.8229 198.289 43.3466 198.03 43.9034L195.803 43.108C196.201 42.1799 196.731 41.4574 197.394 40.9403C198.063 40.4167 198.792 40.0521 199.581 39.8466C200.377 39.6345 201.159 39.5284 201.928 39.5284C202.418 39.5284 202.982 39.5881 203.618 39.7074C204.261 39.8201 204.881 40.0554 205.478 40.4134C206.081 40.7713 206.581 41.3116 206.979 42.0341C207.377 42.7566 207.576 43.7244 207.576 44.9375V55H205.229V52.9318H205.11C204.951 53.2633 204.685 53.6179 204.314 53.9957C203.943 54.3736 203.449 54.6951 202.833 54.9602C202.216 55.2254 201.464 55.358 200.576 55.358ZM200.934 53.25C201.862 53.25 202.644 53.0677 203.28 52.7031C203.923 52.3385 204.407 51.8679 204.732 51.2912C205.063 50.7145 205.229 50.108 205.229 49.4716V47.3239C205.13 47.4432 204.911 47.5526 204.573 47.652C204.241 47.7448 203.857 47.8277 203.419 47.9006C202.989 47.9669 202.568 48.0265 202.157 48.0795C201.752 48.1259 201.424 48.1657 201.172 48.1989C200.562 48.2784 199.992 48.4077 199.462 48.5866C198.938 48.759 198.514 49.0208 198.189 49.3722C197.871 49.7169 197.712 50.1875 197.712 50.7841C197.712 51.5994 198.014 52.2159 198.617 52.6335C199.227 53.0445 199.999 53.25 200.934 53.25ZM211.859 55V39.7273H214.126V42.1136H214.325C214.643 41.2983 215.156 40.6652 215.866 40.2145C216.575 39.7571 217.427 39.5284 218.421 39.5284C219.429 39.5284 220.267 39.7571 220.937 40.2145C221.613 40.6652 222.14 41.2983 222.518 42.1136H222.677C223.068 41.3248 223.655 40.6984 224.437 40.2344C225.219 39.7637 226.157 39.5284 227.251 39.5284C228.616 39.5284 229.733 39.956 230.602 40.8111C231.47 41.6596 231.904 42.982 231.904 44.7784V55H229.558V44.7784C229.558 43.6515 229.249 42.8461 228.633 42.3622C228.016 41.8783 227.29 41.6364 226.455 41.6364C225.381 41.6364 224.549 41.9612 223.96 42.6108C223.37 43.2538 223.075 44.0691 223.075 45.0568V55H220.688V44.5398C220.688 43.6714 220.406 42.9721 219.843 42.4418C219.28 41.9048 218.554 41.6364 217.665 41.6364C217.056 41.6364 216.486 41.7988 215.955 42.1236C215.432 42.4484 215.007 42.8991 214.683 43.4759C214.364 44.0459 214.205 44.7055 214.205 45.4545V55H211.859ZM236.195 55V39.7273H238.541V55H236.195ZM237.388 37.1818C236.93 37.1818 236.536 37.026 236.205 36.7145C235.88 36.4029 235.717 36.0284 235.717 35.5909C235.717 35.1534 235.88 34.7789 236.205 34.4673C236.536 34.1558 236.93 34 237.388 34C237.845 34 238.236 34.1558 238.561 34.4673C238.893 34.7789 239.058 35.1534 239.058 35.5909C239.058 36.0284 238.893 36.4029 238.561 36.7145C238.236 37.026 237.845 37.1818 237.388 37.1818ZM245.186 45.8125V55H242.839V39.7273H245.106V42.1136H245.305C245.663 41.3381 246.207 40.715 246.936 40.2443C247.665 39.767 248.606 39.5284 249.76 39.5284C250.794 39.5284 251.699 39.7405 252.474 40.1648C253.25 40.5824 253.853 41.2188 254.284 42.0739C254.715 42.9223 254.93 43.9962 254.93 45.2955V55H252.583V45.4545C252.583 44.2547 252.272 43.3201 251.649 42.6506C251.026 41.9744 250.171 41.6364 249.083 41.6364C248.334 41.6364 247.665 41.7988 247.075 42.1236C246.492 42.4484 246.031 42.9223 245.693 43.5455C245.355 44.1686 245.186 44.9242 245.186 45.8125ZM261.565 45.8125V55H259.218V39.7273H261.485V42.1136H261.684C262.042 41.3381 262.585 40.715 263.315 40.2443C264.044 39.767 264.985 39.5284 266.138 39.5284C267.173 39.5284 268.077 39.7405 268.853 40.1648C269.629 40.5824 270.232 41.2188 270.663 42.0739C271.094 42.9223 271.309 43.9962 271.309 45.2955V55H268.962V45.4545C268.962 44.2547 268.651 43.3201 268.028 42.6506C267.405 41.9744 266.549 41.6364 265.462 41.6364C264.713 41.6364 264.044 41.7988 263.454 42.1236C262.871 42.4484 262.41 42.9223 262.072 43.5455C261.734 44.1686 261.565 44.9242 261.565 45.8125ZM281.595 34.6364V55H279.129V37.2216H279.01L274.038 40.5227V38.017L279.129 34.6364H281.595ZM287.452 55V53.2102L294.173 45.8523C294.962 44.9905 295.612 44.2415 296.122 43.6051C296.633 42.9621 297.01 42.3589 297.256 41.7955C297.508 41.2254 297.634 40.6288 297.634 40.0057C297.634 39.2898 297.461 38.67 297.116 38.1463C296.778 37.6226 296.314 37.2183 295.724 36.9332C295.134 36.6482 294.472 36.5057 293.736 36.5057C292.954 36.5057 292.271 36.6681 291.688 36.9929C291.111 37.3111 290.663 37.7585 290.345 38.3352C290.034 38.9119 289.878 39.5881 289.878 40.3636H287.531C287.531 39.1705 287.806 38.1231 288.357 37.2216C288.907 36.3201 289.656 35.6174 290.604 35.1136C291.558 34.6098 292.629 34.358 293.815 34.358C295.009 34.358 296.066 34.6098 296.987 35.1136C297.909 35.6174 298.631 36.2969 299.155 37.152C299.679 38.0071 299.94 38.9583 299.94 40.0057C299.94 40.7547 299.804 41.4872 299.533 42.2031C299.268 42.9124 298.804 43.7045 298.141 44.5795C297.484 45.4479 296.573 46.5085 295.406 47.7614L290.832 52.6534V52.8125H300.298V55H287.452ZM311.047 55.2784C309.549 55.2784 308.273 54.8707 307.219 54.0554C306.165 53.2334 305.359 52.0436 304.803 50.4858C304.246 48.9214 303.967 47.0322 303.967 44.8182C303.967 42.6174 304.246 40.7382 304.803 39.1804C305.366 37.616 306.175 36.4228 307.229 35.6009C308.289 34.7723 309.562 34.358 311.047 34.358C312.532 34.358 313.801 34.7723 314.855 35.6009C315.916 36.4228 316.724 37.616 317.281 39.1804C317.845 40.7382 318.126 42.6174 318.126 44.8182C318.126 47.0322 317.848 48.9214 317.291 50.4858C316.734 52.0436 315.929 53.2334 314.875 54.0554C313.821 54.8707 312.545 55.2784 311.047 55.2784ZM311.047 53.0909C312.532 53.0909 313.685 52.375 314.507 50.9432C315.329 49.5114 315.74 47.4697 315.74 44.8182C315.74 43.0549 315.551 41.5535 315.173 40.3139C314.802 39.0743 314.265 38.1297 313.562 37.4801C312.866 36.8305 312.028 36.5057 311.047 36.5057C309.575 36.5057 308.425 37.2315 307.597 38.6832C306.768 40.1283 306.354 42.1733 306.354 44.8182C306.354 46.5814 306.539 48.0795 306.911 49.3125C307.282 50.5455 307.815 51.4834 308.511 52.1264C309.214 52.7694 310.059 53.0909 311.047 53.0909ZM321.905 55V53.2102L328.626 45.8523C329.415 44.9905 330.065 44.2415 330.575 43.6051C331.086 42.9621 331.464 42.3589 331.709 41.7955C331.961 41.2254 332.087 40.6288 332.087 40.0057C332.087 39.2898 331.914 38.67 331.57 38.1463C331.232 37.6226 330.768 37.2183 330.178 36.9332C329.588 36.6482 328.925 36.5057 328.189 36.5057C327.407 36.5057 326.724 36.6681 326.141 36.9929C325.564 37.3111 325.116 37.7585 324.798 38.3352C324.487 38.9119 324.331 39.5881 324.331 40.3636H321.984C321.984 39.1705 322.259 38.1231 322.81 37.2216C323.36 36.3201 324.109 35.6174 325.057 35.1136C326.011 34.6098 327.082 34.358 328.268 34.358C329.462 34.358 330.519 34.6098 331.44 35.1136C332.362 35.6174 333.084 36.2969 333.608 37.152C334.132 38.0071 334.393 38.9583 334.393 40.0057C334.393 40.7547 334.258 41.4872 333.986 42.2031C333.721 42.9124 333.257 43.7045 332.594 44.5795C331.938 45.4479 331.026 46.5085 329.859 47.7614L325.286 52.6534V52.8125H334.751V55H321.905Z" fill="white"/>
<circle cx="45" cy="45" r="45" fill="white"/>
<path d="M19.8636 68V33.0909H29.5455V68H19.8636ZM24.7273 28.5909C23.2879 28.5909 22.053 28.1136 21.0227 27.1591C20.0076 26.1894 19.5 25.0303 19.5 23.6818C19.5 22.3485 20.0076 21.2045 21.0227 20.25C22.053 19.2803 23.2879 18.7955 24.7273 18.7955C26.1667 18.7955 27.3939 19.2803 28.4091 20.25C29.4394 21.2045 29.9545 22.3485 29.9545 23.6818C29.9545 25.0303 29.4394 26.1894 28.4091 27.1591C27.3939 28.1136 26.1667 28.5909 24.7273 28.5909ZM46.983 47.8182V68H37.3011V33.0909H46.5284V39.25H46.9375C47.7102 37.2197 49.0057 35.6136 50.8239 34.4318C52.642 33.2348 54.8466 32.6364 57.4375 32.6364C59.8617 32.6364 61.9754 33.1667 63.7784 34.2273C65.5814 35.2879 66.983 36.803 67.983 38.7727C68.983 40.7273 69.483 43.0606 69.483 45.7727V68H59.8011V47.5C59.8163 45.3636 59.2708 43.697 58.1648 42.5C57.0587 41.2879 55.536 40.6818 53.5966 40.6818C52.2936 40.6818 51.142 40.9621 50.142 41.5227C49.1572 42.0833 48.3845 42.9015 47.8239 43.9773C47.2784 45.0379 46.9981 46.3182 46.983 47.8182Z" fill="black"/>
</svg>
